<svg xmlns="http://www.w3.org/2000/svg" width="572" height="572" viewBox="0 0 572 572" role="img" aria-label="Viewport 45"><defs><style>.frame { fill: #101b31; stroke: #314260; stroke-width: 1; }.cell { stroke: #24324f; stroke-width: 1; }.value { fill: #08111f; font-family: ui-monospace, SFMono-Regular, monospace; font-size: 10.88px; font-weight: 700; text-anchor: middle; dominant-baseline: central; }.overlay-label { fill: #f4f7fb; font-family: ui-monospace, SFMono-Regular, monospace; font-size: 17.68px; font-weight: 700; text-anchor: start; dominant-baseline: hanging; }</style></defs><rect class="frame" x="0.5" y="0.5" width="571" height="571" rx="8" /><rect class="cell" x="24" y="24" width="34" height="34" fill="#8df6c7" rx="2" /><text class="value" x="41.0" y="41.0">11</text><rect class="cell" x="59" y="24" width="34" height="34" fill="#8df6c7" rx="2" /><text class="value" x="76.0" y="41.0">11</text><rect class="cell" x="94" y="24" width="34" height="34" fill="#8df6c7" rx="2" /><text class="value" x="111.0" y="41.0">11</text><rect class="cell" x="129" y="24" width="34" height="34" fill="#8df6c7" rx="2" /><text class="value" x="146.0" y="41.0">11</text><rect class="cell" x="164" y="24" width="34" height="34" fill="#8df6c7" rx="2" /><text class="value" x="181.0" y="41.0">11</text><rect class="cell" x="199" y="24" width="34" height="34" fill="#8df6c7" rx="2" /><text class="value" x="216.0" y="41.0">11</text><rect class="cell" x="234" y="24" width="34" height="34" fill="#94b5ff" rx="2" /><text class="value" x="251.0" y="41.0">5</text><rect class="cell" x="269" y="24" width="34" height="34" fill="#94b5ff" rx="2" /><text class="value" x="286.0" y="41.0">5</text><rect class="cell" x="304" y="24" width="34" height="34" fill="#94b5ff" rx="2" /><text class="value" x="321.0" y="41.0">5</text><rect class="cell" x="339" y="24" width="34" height="34" fill="#8df6c7" rx="2" /><text class="value" x="356.0" y="41.0">11</text><rect class="cell" x="374" y="24" width="34" height="34" fill="#ffd36f" rx="2" /><text class="value" x="391.0" y="41.0">4</text><rect class="cell" x="409" y="24" width="34" height="34" fill="#94b5ff" rx="2" /><text class="value" x="426.0" y="41.0">5</text><rect class="cell" x="444" y="24" width="34" height="34" fill="#8df6c7" rx="2" /><text class="value" x="461.0" y="41.0">11</text><rect class="cell" x="479" y="24" width="34" height="34" fill="#8df6c7" rx="2" /><text class="value" x="496.0" y="41.0">11</text><rect class="cell" x="514" y="24" width="34" height="34" fill="#8df6c7" rx="2" /><text class="value" x="531.0" y="41.0">11</text><rect class="cell" x="24" y="59" width="34" height="34" fill="#8df6c7" rx="2" /><text class="value" x="41.0" y="76.0">11</text><rect class="cell" x="59" y="59" width="34" height="34" fill="#ffd36f" rx="2" /><text class="value" x="76.0" y="76.0">4</text><rect class="cell" x="94" y="59" width="34" height="34" fill="#8df6c7" rx="2" /><text class="value" x="111.0" y="76.0">11</text><rect class="cell" x="129" y="59" width="34" height="34" fill="#8df6c7" rx="2" /><text class="value" x="146.0" y="76.0">11</text><rect class="cell" x="164" y="59" width="34" height="34" fill="#8df6c7" rx="2" /><text class="value" x="181.0" y="76.0">11</text><rect class="cell" x="199" y="59" width="34" height="34" fill="#8df6c7" rx="2" /><text class="value" x="216.0" y="76.0">11</text><rect class="cell" x="234" y="59" width="34" height="34" fill="#8df6c7" rx="2" /><text class="value" x="251.0" y="76.0">11</text><rect class="cell" x="269" y="59" width="34" height="34" fill="#8df6c7" rx="2" /><text class="value" x="286.0" y="76.0">11</text><rect class="cell" x="304" y="59" width="34" height="34" fill="#8df6c7" rx="2" /><text class="value" x="321.0" y="76.0">11</text><rect class="cell" x="339" y="59" width="34" height="34" fill="#8df6c7" rx="2" /><text class="value" x="356.0" y="76.0">11</text><rect class="cell" x="374" y="59" width="34" height="34" fill="#8df6c7" rx="2" /><text class="value" x="391.0" y="76.0">11</text><rect class="cell" x="409" y="59" width="34" height="34" fill="#94b5ff" rx="2" /><text class="value" x="426.0" y="76.0">5</text><rect class="cell" x="444" y="59" width="34" height="34" fill="#8df6c7" rx="2" /><text class="value" x="461.0" y="76.0">11</text><rect class="cell" x="479" y="59" width="34" height="34" fill="#ffd36f" rx="2" /><text class="value" x="496.0" y="76.0">4</text><rect class="cell" x="514" y="59" width="34" height="34" fill="#8df6c7" rx="2" /><text class="value" x="531.0" y="76.0">11</text><rect class="cell" x="24" y="94" width="34" height="34" fill="#8df6c7" rx="2" /><text class="value" x="41.0" y="111.0">11</text><rect class="cell" x="59" y="94" width="34" height="34" fill="#8df6c7" rx="2" /><text class="value" x="76.0" y="111.0">11</text><rect class="cell" x="94" y="94" width="34" height="34" fill="#8df6c7" rx="2" /><text class="value" x="111.0" y="111.0">11</text><rect class="cell" x="129" y="94" width="34" height="34" fill="#8df6c7" rx="2" /><text class="value" x="146.0" y="111.0">11</text><rect class="cell" x="164" y="94" width="34" height="34" fill="#ffd36f" rx="2" /><text class="value" x="181.0" y="111.0">4</text><rect class="cell" x="199" y="94" width="34" height="34" fill="#8df6c7" rx="2" /><text class="value" x="216.0" y="111.0">11</text><rect class="cell" x="234" y="94" width="34" height="34" fill="#8df6c7" rx="2" /><text class="value" x="251.0" y="111.0">11</text><rect class="cell" x="269" y="94" width="34" height="34" fill="#8df6c7" rx="2" /><text class="value" x="286.0" y="111.0">11</text><rect class="cell" x="304" y="94" width="34" height="34" fill="#8df6c7" rx="2" /><text class="value" x="321.0" y="111.0">11</text><rect class="cell" x="339" y="94" width="34" height="34" fill="#ffd36f" rx="2" /><text class="value" x="356.0" y="111.0">4</text><rect class="cell" x="374" y="94" width="34" height="34" fill="#8df6c7" rx="2" /><text class="value" x="391.0" y="111.0">11</text><rect class="cell" x="409" y="94" width="34" height="34" fill="#8df6c7" rx="2" /><text class="value" x="426.0" y="111.0">11</text><rect class="cell" x="444" y="94" width="34" height="34" fill="#8df6c7" rx="2" /><text class="value" x="461.0" y="111.0">11</text><rect class="cell" x="479" y="94" width="34" height="34" fill="#8df6c7" rx="2" /><text class="value" x="496.0" y="111.0">11</text><rect class="cell" x="514" y="94" width="34" height="34" fill="#ffd36f" rx="2" /><text class="value" x="531.0" y="111.0">4</text><rect class="cell" x="24" y="129" width="34" height="34" fill="#8df6c7" rx="2" /><text class="value" x="41.0" y="146.0">11</text><rect class="cell" x="59" y="129" width="34" height="34" fill="#8df6c7" rx="2" /><text class="value" x="76.0" y="146.0">11</text><rect class="cell" x="94" y="129" width="34" height="34" fill="#ffd36f" rx="2" /><text class="value" x="111.0" y="146.0">4</text><rect class="cell" x="129" y="129" width="34" height="34" fill="#8df6c7" rx="2" /><text class="value" x="146.0" y="146.0">11</text><rect class="cell" x="164" y="129" width="34" height="34" fill="#8df6c7" rx="2" /><text class="value" x="181.0" y="146.0">11</text><rect class="cell" x="199" y="129" width="34" height="34" fill="#8df6c7" rx="2" /><text class="value" x="216.0" y="146.0">11</text><rect class="cell" x="234" y="129" width="34" height="34" fill="#8df6c7" rx="2" /><text class="value" x="251.0" y="146.0">11</text><rect class="cell" x="269" y="129" width="34" height="34" fill="#8df6c7" rx="2" /><text class="value" x="286.0" y="146.0">11</text><rect class="cell" x="304" y="129" width="34" height="34" fill="#8df6c7" rx="2" /><text class="value" x="321.0" y="146.0">11</text><rect class="cell" x="339" y="129" width="34" height="34" fill="#ffd36f" rx="2" /><text class="value" x="356.0" y="146.0">4</text><rect class="cell" x="374" y="129" width="34" height="34" fill="#8df6c7" rx="2" /><text class="value" x="391.0" y="146.0">11</text><rect class="cell" x="409" y="129" width="34" height="34" fill="#8df6c7" rx="2" /><text class="value" x="426.0" y="146.0">11</text><rect class="cell" x="444" y="129" width="34" height="34" fill="#ffd36f" rx="2" /><text class="value" x="461.0" y="146.0">4</text><rect class="cell" x="479" y="129" width="34" height="34" fill="#8df6c7" rx="2" /><text class="value" x="496.0" y="146.0">11</text><rect class="cell" x="514" y="129" width="34" height="34" fill="#ffd36f" rx="2" /><text class="value" x="531.0" y="146.0">4</text><rect class="cell" x="24" y="164" width="34" height="34" fill="#8df6c7" rx="2" /><text class="value" x="41.0" y="181.0">11</text><rect class="cell" x="59" y="164" width="34" height="34" fill="#8df6c7" rx="2" /><text class="value" x="76.0" y="181.0">11</text><rect class="cell" x="94" y="164" width="34" height="34" fill="#ffd36f" rx="2" /><text class="value" x="111.0" y="181.0">4</text><rect class="cell" x="129" y="164" width="34" height="34" fill="#8df6c7" rx="2" /><text class="value" x="146.0" y="181.0">11</text><rect class="cell" x="164" y="164" width="34" height="34" fill="#8df6c7" rx="2" /><text class="value" x="181.0" y="181.0">11</text><rect class="cell" x="199" y="164" width="34" height="34" fill="#8df6c7" rx="2" /><text class="value" x="216.0" y="181.0">11</text><rect class="cell" x="234" y="164" width="34" height="34" fill="#ffd36f" rx="2" /><text class="value" x="251.0" y="181.0">4</text><rect class="cell" x="269" y="164" width="34" height="34" fill="#ffd36f" rx="2" /><text class="value" x="286.0" y="181.0">4</text><rect class="cell" x="304" y="164" width="34" height="34" fill="#8df6c7" rx="2" /><text class="value" x="321.0" y="181.0">11</text><rect class="cell" x="339" y="164" width="34" height="34" fill="#ffd36f" rx="2" /><text class="value" x="356.0" y="181.0">4</text><rect class="cell" x="374" y="164" width="34" height="34" fill="#8df6c7" rx="2" /><text class="value" x="391.0" y="181.0">11</text><rect class="cell" x="409" y="164" width="34" height="34" fill="#8df6c7" rx="2" /><text class="value" x="426.0" y="181.0">11</text><rect class="cell" x="444" y="164" width="34" height="34" fill="#8df6c7" rx="2" /><text class="value" x="461.0" y="181.0">11</text><rect class="cell" x="479" y="164" width="34" height="34" fill="#8df6c7" rx="2" /><text class="value" x="496.0" y="181.0">11</text><rect class="cell" x="514" y="164" width="34" height="34" fill="#8df6c7" rx="2" /><text class="value" x="531.0" y="181.0">11</text><rect class="cell" x="24" y="199" width="34" height="34" fill="#ffd36f" rx="2" /><text class="value" x="41.0" y="216.0">4</text><rect class="cell" x="59" y="199" width="34" height="34" fill="#8df6c7" rx="2" /><text class="value" x="76.0" y="216.0">11</text><rect class="cell" x="94" y="199" width="34" height="34" fill="#ffd36f" rx="2" /><text class="value" x="111.0" y="216.0">4</text><rect class="cell" x="129" y="199" width="34" height="34" fill="#8df6c7" rx="2" /><text class="value" x="146.0" y="216.0">11</text><rect class="cell" x="164" y="199" width="34" height="34" fill="#ffd36f" rx="2" /><text class="value" x="181.0" y="216.0">4</text><rect class="cell" x="199" y="199" width="34" height="34" fill="#8df6c7" rx="2" /><text class="value" x="216.0" y="216.0">11</text><rect class="cell" x="234" y="199" width="34" height="34" fill="#ffd36f" rx="2" /><text class="value" x="251.0" y="216.0">4</text><rect class="cell" x="269" y="199" width="34" height="34" fill="#8df6c7" rx="2" /><text class="value" x="286.0" y="216.0">11</text><rect class="cell" x="304" y="199" width="34" height="34" fill="#ffd36f" rx="2" /><text class="value" x="321.0" y="216.0">4</text><rect class="cell" x="339" y="199" width="34" height="34" fill="#8df6c7" rx="2" /><text class="value" x="356.0" y="216.0">11</text><rect class="cell" x="374" y="199" width="34" height="34" fill="#8df6c7" rx="2" /><text class="value" x="391.0" y="216.0">11</text><rect class="cell" x="409" y="199" width="34" height="34" fill="#8df6c7" rx="2" /><text class="value" x="426.0" y="216.0">11</text><rect class="cell" x="444" y="199" width="34" height="34" fill="#8df6c7" rx="2" /><text class="value" x="461.0" y="216.0">11</text><rect class="cell" x="479" y="199" width="34" height="34" fill="#8df6c7" rx="2" /><text class="value" x="496.0" y="216.0">11</text><rect class="cell" x="514" y="199" width="34" height="34" fill="#8df6c7" rx="2" /><text class="value" x="531.0" y="216.0">11</text><rect class="cell" x="24" y="234" width="34" height="34" fill="#8df6c7" rx="2" /><text class="value" x="41.0" y="251.0">11</text><rect class="cell" x="59" y="234" width="34" height="34" fill="#8df6c7" rx="2" /><text class="value" x="76.0" y="251.0">11</text><rect class="cell" x="94" y="234" width="34" height="34" fill="#8df6c7" rx="2" /><text class="value" x="111.0" y="251.0">11</text><rect class="cell" x="129" y="234" width="34" height="34" fill="#8df6c7" rx="2" /><text class="value" x="146.0" y="251.0">11</text><rect class="cell" x="164" y="234" width="34" height="34" fill="#8df6c7" rx="2" /><text class="value" x="181.0" y="251.0">11</text><rect class="cell" x="199" y="234" width="34" height="34" fill="#8df6c7" rx="2" /><text class="value" x="216.0" y="251.0">11</text><rect class="cell" x="234" y="234" width="34" height="34" fill="#8df6c7" rx="2" /><text class="value" x="251.0" y="251.0">11</text><rect class="cell" x="269" y="234" width="34" height="34" fill="#8df6c7" rx="2" /><text class="value" x="286.0" y="251.0">11</text><rect class="cell" x="304" y="234" width="34" height="34" fill="#8df6c7" rx="2" /><text class="value" x="321.0" y="251.0">11</text><rect class="cell" x="339" y="234" width="34" height="34" fill="#ffd36f" rx="2" /><text class="value" x="356.0" y="251.0">4</text><rect class="cell" x="374" y="234" width="34" height="34" fill="#8df6c7" rx="2" /><text class="value" x="391.0" y="251.0">11</text><rect class="cell" x="409" y="234" width="34" height="34" fill="#8df6c7" rx="2" /><text class="value" x="426.0" y="251.0">11</text><rect class="cell" x="444" y="234" width="34" height="34" fill="#ffd36f" rx="2" /><text class="value" x="461.0" y="251.0">4</text><rect class="cell" x="479" y="234" width="34" height="34" fill="#8df6c7" rx="2" /><text class="value" x="496.0" y="251.0">11</text><rect class="cell" x="514" y="234" width="34" height="34" fill="#8df6c7" rx="2" /><text class="value" x="531.0" y="251.0">11</text><rect class="cell" x="24" y="269" width="34" height="34" fill="#8df6c7" rx="2" /><text class="value" x="41.0" y="286.0">11</text><rect class="cell" x="59" y="269" width="34" height="34" fill="#8df6c7" rx="2" /><text class="value" x="76.0" y="286.0">11</text><rect class="cell" x="94" y="269" width="34" height="34" fill="#8df6c7" rx="2" /><text class="value" x="111.0" y="286.0">11</text><rect class="cell" x="129" y="269" width="34" height="34" fill="#ffd36f" rx="2" /><text class="value" x="146.0" y="286.0">4</text><rect class="cell" x="164" y="269" width="34" height="34" fill="#8df6c7" rx="2" /><text class="value" x="181.0" y="286.0">11</text><rect class="cell" x="199" y="269" width="34" height="34" fill="#ffd36f" rx="2" /><text class="value" x="216.0" y="286.0">4</text><rect class="cell" x="234" y="269" width="34" height="34" fill="#ffd36f" rx="2" /><text class="value" x="251.0" y="286.0">4</text><rect class="cell" x="269" y="269" width="34" height="34" fill="#8df6c7" rx="2" /><text class="value" x="286.0" y="286.0">11</text><rect class="cell" x="304" y="269" width="34" height="34" fill="#8df6c7" rx="2" /><text class="value" x="321.0" y="286.0">11</text><rect class="cell" x="339" y="269" width="34" height="34" fill="#8df6c7" rx="2" /><text class="value" x="356.0" y="286.0">11</text><rect class="cell" x="374" y="269" width="34" height="34" fill="#8df6c7" rx="2" /><text class="value" x="391.0" y="286.0">11</text><rect class="cell" x="409" y="269" width="34" height="34" fill="#8df6c7" rx="2" /><text class="value" x="426.0" y="286.0">11</text><rect class="cell" x="444" y="269" width="34" height="34" fill="#8df6c7" rx="2" /><text class="value" x="461.0" y="286.0">11</text><rect class="cell" x="479" y="269" width="34" height="34" fill="#ffd36f" rx="2" /><text class="value" x="496.0" y="286.0">4</text><rect class="cell" x="514" y="269" width="34" height="34" fill="#ffd36f" rx="2" /><text class="value" x="531.0" y="286.0">4</text><rect class="cell" x="24" y="304" width="34" height="34" fill="#ffd36f" rx="2" /><text class="value" x="41.0" y="321.0">4</text><rect class="cell" x="59" y="304" width="34" height="34" fill="#8df6c7" rx="2" /><text class="value" x="76.0" y="321.0">11</text><rect class="cell" x="94" y="304" width="34" height="34" fill="#8df6c7" rx="2" /><text class="value" x="111.0" y="321.0">11</text><rect class="cell" x="129" y="304" width="34" height="34" fill="#8df6c7" rx="2" /><text class="value" x="146.0" y="321.0">11</text><rect class="cell" x="164" y="304" width="34" height="34" fill="#8df6c7" rx="2" /><text class="value" x="181.0" y="321.0">11</text><rect class="cell" x="199" y="304" width="34" height="34" fill="#ffd36f" rx="2" /><text class="value" x="216.0" y="321.0">4</text><rect class="cell" x="234" y="304" width="34" height="34" fill="#8df6c7" rx="2" /><text class="value" x="251.0" y="321.0">11</text><rect class="cell" x="269" y="304" width="34" height="34" fill="#8df6c7" rx="2" /><text class="value" x="286.0" y="321.0">11</text><rect class="cell" x="304" y="304" width="34" height="34" fill="#8df6c7" rx="2" /><text class="value" x="321.0" y="321.0">11</text><rect class="cell" x="339" y="304" width="34" height="34" fill="#8df6c7" rx="2" /><text class="value" x="356.0" y="321.0">11</text><rect class="cell" x="374" y="304" width="34" height="34" fill="#8df6c7" rx="2" /><text class="value" x="391.0" y="321.0">11</text><rect class="cell" x="409" y="304" width="34" height="34" fill="#8df6c7" rx="2" /><text class="value" x="426.0" y="321.0">11</text><rect class="cell" x="444" y="304" width="34" height="34" fill="#8df6c7" rx="2" /><text class="value" x="461.0" y="321.0">11</text><rect class="cell" x="479" y="304" width="34" height="34" fill="#8df6c7" rx="2" /><text class="value" x="496.0" y="321.0">11</text><rect class="cell" x="514" y="304" width="34" height="34" fill="#ffd36f" rx="2" /><text class="value" x="531.0" y="321.0">4</text><rect class="cell" x="24" y="339" width="34" height="34" fill="#ffd36f" rx="2" /><text class="value" x="41.0" y="356.0">4</text><rect class="cell" x="59" y="339" width="34" height="34" fill="#8df6c7" rx="2" /><text class="value" x="76.0" y="356.0">11</text><rect class="cell" x="94" y="339" width="34" height="34" fill="#ffd36f" rx="2" /><text class="value" x="111.0" y="356.0">4</text><rect class="cell" x="129" y="339" width="34" height="34" fill="#8df6c7" rx="2" /><text class="value" x="146.0" y="356.0">11</text><rect class="cell" x="164" y="339" width="34" height="34" fill="#8df6c7" rx="2" /><text class="value" x="181.0" y="356.0">11</text><rect class="cell" x="199" y="339" width="34" height="34" fill="#ffd36f" rx="2" /><text class="value" x="216.0" y="356.0">4</text><rect class="cell" x="234" y="339" width="34" height="34" fill="#8df6c7" rx="2" /><text class="value" x="251.0" y="356.0">11</text><rect class="cell" x="269" y="339" width="34" height="34" fill="#8df6c7" rx="2" /><text class="value" x="286.0" y="356.0">11</text><rect class="cell" x="304" y="339" width="34" height="34" fill="#8df6c7" rx="2" /><text class="value" x="321.0" y="356.0">11</text><rect class="cell" x="339" y="339" width="34" height="34" fill="#8df6c7" rx="2" /><text class="value" x="356.0" y="356.0">11</text><rect class="cell" x="374" y="339" width="34" height="34" fill="#8df6c7" rx="2" /><text class="value" x="391.0" y="356.0">11</text><rect class="cell" x="409" y="339" width="34" height="34" fill="#8df6c7" rx="2" /><text class="value" x="426.0" y="356.0">11</text><rect class="cell" x="444" y="339" width="34" height="34" fill="#ffd36f" rx="2" /><text class="value" x="461.0" y="356.0">4</text><rect class="cell" x="479" y="339" width="34" height="34" fill="#8df6c7" rx="2" /><text class="value" x="496.0" y="356.0">11</text><rect class="cell" x="514" y="339" width="34" height="34" fill="#8df6c7" rx="2" /><text class="value" x="531.0" y="356.0">11</text><rect class="cell" x="24" y="374" width="34" height="34" fill="#8df6c7" rx="2" /><text class="value" x="41.0" y="391.0">11</text><rect class="cell" x="59" y="374" width="34" height="34" fill="#ffd36f" rx="2" /><text class="value" x="76.0" y="391.0">4</text><rect class="cell" x="94" y="374" width="34" height="34" fill="#8df6c7" rx="2" /><text class="value" x="111.0" y="391.0">11</text><rect class="cell" x="129" y="374" width="34" height="34" fill="#8df6c7" rx="2" /><text class="value" x="146.0" y="391.0">11</text><rect class="cell" x="164" y="374" width="34" height="34" fill="#ffd36f" rx="2" /><text class="value" x="181.0" y="391.0">4</text><rect class="cell" x="199" y="374" width="34" height="34" fill="#8df6c7" rx="2" /><text class="value" x="216.0" y="391.0">11</text><rect class="cell" x="234" y="374" width="34" height="34" fill="#8df6c7" rx="2" /><text class="value" x="251.0" y="391.0">11</text><rect class="cell" x="269" y="374" width="34" height="34" fill="#8df6c7" rx="2" /><text class="value" x="286.0" y="391.0">11</text><rect class="cell" x="304" y="374" width="34" height="34" fill="#ffd36f" rx="2" /><text class="value" x="321.0" y="391.0">4</text><rect class="cell" x="339" y="374" width="34" height="34" fill="#8df6c7" rx="2" /><text class="value" x="356.0" y="391.0">11</text><rect class="cell" x="374" y="374" width="34" height="34" fill="#8df6c7" rx="2" /><text class="value" x="391.0" y="391.0">11</text><rect class="cell" x="409" y="374" width="34" height="34" fill="#ffd36f" rx="2" /><text class="value" x="426.0" y="391.0">4</text><rect class="cell" x="444" y="374" width="34" height="34" fill="#8df6c7" rx="2" /><text class="value" x="461.0" y="391.0">11</text><rect class="cell" x="479" y="374" width="34" height="34" fill="#8df6c7" rx="2" /><text class="value" x="496.0" y="391.0">11</text><rect class="cell" x="514" y="374" width="34" height="34" fill="#ffd36f" rx="2" /><text class="value" x="531.0" y="391.0">4</text><rect class="cell" x="24" y="409" width="34" height="34" fill="#8df6c7" rx="2" /><text class="value" x="41.0" y="426.0">11</text><rect class="cell" x="59" y="409" width="34" height="34" fill="#8df6c7" rx="2" /><text class="value" x="76.0" y="426.0">11</text><rect class="cell" x="94" y="409" width="34" height="34" fill="#8df6c7" rx="2" /><text class="value" x="111.0" y="426.0">11</text><rect class="cell" x="129" y="409" width="34" height="34" fill="#8df6c7" rx="2" /><text class="value" x="146.0" y="426.0">11</text><rect class="cell" x="164" y="409" width="34" height="34" fill="#8df6c7" rx="2" /><text class="value" x="181.0" y="426.0">11</text><rect class="cell" x="199" y="409" width="34" height="34" fill="#8df6c7" rx="2" /><text class="value" x="216.0" y="426.0">11</text><rect class="cell" x="234" y="409" width="34" height="34" fill="#8df6c7" rx="2" /><text class="value" x="251.0" y="426.0">11</text><rect class="cell" x="269" y="409" width="34" height="34" fill="#8df6c7" rx="2" /><text class="value" x="286.0" y="426.0">11</text><rect class="cell" x="304" y="409" width="34" height="34" fill="#8df6c7" rx="2" /><text class="value" x="321.0" y="426.0">11</text><rect class="cell" x="339" y="409" width="34" height="34" fill="#8df6c7" rx="2" /><text class="value" x="356.0" y="426.0">11</text><rect class="cell" x="374" y="409" width="34" height="34" fill="#8df6c7" rx="2" /><text class="value" x="391.0" y="426.0">11</text><rect class="cell" x="409" y="409" width="34" height="34" fill="#ffd36f" rx="2" /><text class="value" x="426.0" y="426.0">4</text><rect class="cell" x="444" y="409" width="34" height="34" fill="#8df6c7" rx="2" /><text class="value" x="461.0" y="426.0">11</text><rect class="cell" x="479" y="409" width="34" height="34" fill="#8df6c7" rx="2" /><text class="value" x="496.0" y="426.0">11</text><rect class="cell" x="514" y="409" width="34" height="34" fill="#8df6c7" rx="2" /><text class="value" x="531.0" y="426.0">11</text><rect class="cell" x="24" y="444" width="34" height="34" fill="#8df6c7" rx="2" /><text class="value" x="41.0" y="461.0">11</text><rect class="cell" x="59" y="444" width="34" height="34" fill="#8df6c7" rx="2" /><text class="value" x="76.0" y="461.0">11</text><rect class="cell" x="94" y="444" width="34" height="34" fill="#8df6c7" rx="2" /><text class="value" x="111.0" y="461.0">11</text><rect class="cell" x="129" y="444" width="34" height="34" fill="#8df6c7" rx="2" /><text class="value" x="146.0" y="461.0">11</text><rect class="cell" x="164" y="444" width="34" height="34" fill="#ffd36f" rx="2" /><text class="value" x="181.0" y="461.0">4</text><rect class="cell" x="199" y="444" width="34" height="34" fill="#8df6c7" rx="2" /><text class="value" x="216.0" y="461.0">11</text><rect class="cell" x="234" y="444" width="34" height="34" fill="#8df6c7" rx="2" /><text class="value" x="251.0" y="461.0">11</text><rect class="cell" x="269" y="444" width="34" height="34" fill="#ffd36f" rx="2" /><text class="value" x="286.0" y="461.0">4</text><rect class="cell" x="304" y="444" width="34" height="34" fill="#8df6c7" rx="2" /><text class="value" x="321.0" y="461.0">11</text><rect class="cell" x="339" y="444" width="34" height="34" fill="#8df6c7" rx="2" /><text class="value" x="356.0" y="461.0">11</text><rect class="cell" x="374" y="444" width="34" height="34" fill="#8df6c7" rx="2" /><text class="value" x="391.0" y="461.0">11</text><rect class="cell" x="409" y="444" width="34" height="34" fill="#8df6c7" rx="2" /><text class="value" x="426.0" y="461.0">11</text><rect class="cell" x="444" y="444" width="34" height="34" fill="#8df6c7" rx="2" /><text class="value" x="461.0" y="461.0">11</text><rect class="cell" x="479" y="444" width="34" height="34" fill="#8df6c7" rx="2" /><text class="value" x="496.0" y="461.0">11</text><rect class="cell" x="514" y="444" width="34" height="34" fill="#8df6c7" rx="2" /><text class="value" x="531.0" y="461.0">11</text><rect class="cell" x="24" y="479" width="34" height="34" fill="#8df6c7" rx="2" /><text class="value" x="41.0" y="496.0">11</text><rect class="cell" x="59" y="479" width="34" height="34" fill="#ffd36f" rx="2" /><text class="value" x="76.0" y="496.0">4</text><rect class="cell" x="94" y="479" width="34" height="34" fill="#ffd36f" rx="2" /><text class="value" x="111.0" y="496.0">4</text><rect class="cell" x="129" y="479" width="34" height="34" fill="#8df6c7" rx="2" /><text class="value" x="146.0" y="496.0">11</text><rect class="cell" x="164" y="479" width="34" height="34" fill="#8df6c7" rx="2" /><text class="value" x="181.0" y="496.0">11</text><rect class="cell" x="199" y="479" width="34" height="34" fill="#8df6c7" rx="2" /><text class="value" x="216.0" y="496.0">11</text><rect class="cell" x="234" y="479" width="34" height="34" fill="#8df6c7" rx="2" /><text class="value" x="251.0" y="496.0">11</text><rect class="cell" x="269" y="479" width="34" height="34" fill="#8df6c7" rx="2" /><text class="value" x="286.0" y="496.0">11</text><rect class="cell" x="304" y="479" width="34" height="34" fill="#ffd36f" rx="2" /><text class="value" x="321.0" y="496.0">4</text><rect class="cell" x="339" y="479" width="34" height="34" fill="#8df6c7" rx="2" /><text class="value" x="356.0" y="496.0">11</text><rect class="cell" x="374" y="479" width="34" height="34" fill="#ffd36f" rx="2" /><text class="value" x="391.0" y="496.0">4</text><rect class="cell" x="409" y="479" width="34" height="34" fill="#8df6c7" rx="2" /><text class="value" x="426.0" y="496.0">11</text><rect class="cell" x="444" y="479" width="34" height="34" fill="#8df6c7" rx="2" /><text class="value" x="461.0" y="496.0">11</text><rect class="cell" x="479" y="479" width="34" height="34" fill="#8df6c7" rx="2" /><text class="value" x="496.0" y="496.0">11</text><rect class="cell" x="514" y="479" width="34" height="34" fill="#ffd36f" rx="2" /><text class="value" x="531.0" y="496.0">4</text><rect class="cell" x="24" y="514" width="34" height="34" fill="#6fe3ff" rx="2" /><text class="value" x="41.0" y="531.0">10</text><rect class="cell" x="59" y="514" width="34" height="34" fill="#6fe3ff" rx="2" /><text class="value" x="76.0" y="531.0">10</text><rect class="cell" x="94" y="514" width="34" height="34" fill="#6fe3ff" rx="2" /><text class="value" x="111.0" y="531.0">10</text><rect class="cell" x="129" y="514" width="34" height="34" fill="#6fe3ff" rx="2" /><text class="value" x="146.0" y="531.0">10</text><rect class="cell" x="164" y="514" width="34" height="34" fill="#6fe3ff" rx="2" /><text class="value" x="181.0" y="531.0">10</text><rect class="cell" x="199" y="514" width="34" height="34" fill="#6fe3ff" rx="2" /><text class="value" x="216.0" y="531.0">10</text><rect class="cell" x="234" y="514" width="34" height="34" fill="#6fe3ff" rx="2" /><text class="value" x="251.0" y="531.0">10</text><rect class="cell" x="269" y="514" width="34" height="34" fill="#6fe3ff" rx="2" /><text class="value" x="286.0" y="531.0">10</text><rect class="cell" x="304" y="514" width="34" height="34" fill="#6fe3ff" rx="2" /><text class="value" x="321.0" y="531.0">10</text><rect class="cell" x="339" y="514" width="34" height="34" fill="#6fe3ff" rx="2" /><text class="value" x="356.0" y="531.0">10</text><rect class="cell" x="374" y="514" width="34" height="34" fill="#6fe3ff" rx="2" /><text class="value" x="391.0" y="531.0">10</text><rect class="cell" x="409" y="514" width="34" height="34" fill="#6fe3ff" rx="2" /><text class="value" x="426.0" y="531.0">10</text><rect class="cell" x="444" y="514" width="34" height="34" fill="#6fe3ff" rx="2" /><text class="value" x="461.0" y="531.0">10</text><rect class="cell" x="479" y="514" width="34" height="34" fill="#6fe3ff" rx="2" /><text class="value" x="496.0" y="531.0">10</text><rect class="cell" x="514" y="514" width="34" height="34" fill="#6fe3ff" rx="2" /><text class="value" x="531.0" y="531.0">10</text></svg>